<?xml version="1.0" encoding="utf-8"?>
<!-- Generator: Adobe Illustrator 16.0.0, SVG Export Plug-In . SVG Version: 6.00 Build 0)  -->
<!DOCTYPE svg PUBLIC "-//W3C//DTD SVG 1.1//EN" "http://www.w3.org/Graphics/SVG/1.1/DTD/svg11.dtd">
<svg version="1.1" id="Layer_1" xmlns="http://www.w3.org/2000/svg" xmlns:xlink="http://www.w3.org/1999/xlink" x="0px" y="0px"
	 width="100px" height="100px" viewBox="0 0 100 100" enable-background="new 0 0 100 100" xml:space="preserve">
<path fill-rule="evenodd" clip-rule="evenodd" d="M50.135,2.904c-26.193,0-47.426,21.233-47.426,47.426
	c0,26.193,21.233,47.426,47.426,47.426c26.192,0,47.426-21.233,47.426-47.426C97.561,24.137,76.327,2.904,50.135,2.904z
	 M50.135,93.188c-23.632,0-42.789-19.156-42.789-42.789c0-23.631,19.157-42.789,42.789-42.789c23.632,0,42.789,19.158,42.789,42.789
	C92.924,74.031,73.767,93.188,50.135,93.188z"/>
<g>
	<path fill-rule="evenodd" clip-rule="evenodd" d="M78.095,50.353c-0.058,4.251,0.003,8.498-0.238,12.749
		c-0.481,8.51-6.504,14.526-15.05,14.913c-8.5,0.385-16.998,0.382-25.495-0.014c-8.379-0.387-14.442-6.451-14.835-14.83
		c-0.401-8.54-0.401-17.082-0.003-25.622c0.396-8.516,6.483-14.532,15.023-14.913c8.414-0.376,16.827-0.36,25.242,0.001
		c8.629,0.37,14.636,6.371,15.122,14.966C78.101,41.854,78.034,46.103,78.095,50.353z M73.105,50.325
		c-0.143-4.414,0.104-8.835-0.341-13.245c-0.525-5.234-4.038-8.976-9.244-9.327C54.573,27.15,45.606,27.12,36.66,27.77
		c-5.09,0.369-8.733,4.071-9.078,9.186c-0.6,8.907-0.598,17.831,0,26.738c0.346,5.142,4.044,8.858,9.201,9.205
		c8.948,0.603,17.914,0.632,26.86-0.017c5.055-0.364,8.592-4.12,9.113-9.187C73.214,59.247,72.97,54.783,73.105,50.325z"/>
	<path fill-rule="evenodd" clip-rule="evenodd" d="M35.844,50.229c-0.013-7.862,6.329-14.194,14.242-14.219
		c8.02-0.025,14.357,6.3,14.375,14.346c0.018,7.915-6.368,14.29-14.311,14.29C42.13,64.645,35.857,58.323,35.844,50.229z
		 M40.792,50.153c-0.002,5.285,4.147,9.518,9.343,9.529c5.073,0.011,9.358-4.226,9.362-9.253c0.003-5.205-4.102-9.387-9.28-9.457
		C45.165,40.905,40.795,45.162,40.792,50.153z"/>
	<path fill-rule="evenodd" clip-rule="evenodd" d="M65.07,38.706c-1.889-0.004-3.351-1.485-3.316-3.358
		c0.034-1.815,1.476-3.261,3.283-3.293c1.806-0.031,3.378,1.505,3.398,3.32C68.456,37.202,66.932,38.711,65.07,38.706z"/>
</g>
</svg>
