<?xml version="1.0" encoding="utf-8"?>
<!-- Generator: Adobe Illustrator 16.0.0, SVG Export Plug-In . SVG Version: 6.00 Build 0)  -->
<!DOCTYPE svg PUBLIC "-//W3C//DTD SVG 1.1//EN" "http://www.w3.org/Graphics/SVG/1.1/DTD/svg11.dtd">
<svg version="1.1" id="Layer_1" xmlns="http://www.w3.org/2000/svg" xmlns:xlink="http://www.w3.org/1999/xlink" x="0px" y="0px"
	 width="100px" height="100px" viewBox="0 0 100 100" enable-background="new 0 0 100 100" xml:space="preserve">
<path fill-rule="evenodd" clip-rule="evenodd" d="M50.135,2.904c-26.193,0-47.426,21.233-47.426,47.426
	c0,26.193,21.233,47.426,47.426,47.426c26.192,0,47.426-21.233,47.426-47.426C97.561,24.137,76.327,2.904,50.135,2.904z
	 M50.135,93.188c-23.632,0-42.789-19.156-42.789-42.789c0-23.631,19.157-42.789,42.789-42.789c23.632,0,42.789,19.158,42.789,42.789
	C92.924,74.031,73.767,93.188,50.135,93.188z"/>
<path fill-rule="evenodd" clip-rule="evenodd" d="M21.038,68.61c1.854-0.021,3.71,0.109,5.563-0.135
	c4.304-0.563,8.195-2.117,11.81-4.822c-5.454-0.513-9.157-3.167-11.163-8.285c1.301,0.167,2.484,0.247,3.668,0.102
	c0.278-0.035,0.554-0.084,0.829-0.133c0.12-0.021,0.274-0.02,0.27-0.194c-0.003-0.161-0.151-0.185-0.268-0.225
	c-0.24-0.081-0.486-0.149-0.728-0.233c-4.586-1.604-7.781-5.918-7.96-10.754c-0.006-0.149-0.001-0.299-0.001-0.563
	c1.653,0.826,3.3,1.38,5.143,1.431c-0.136-0.364-0.44-0.476-0.658-0.656c-4.288-3.557-5.591-9.361-3.2-14.288
	c0.43-0.886,0.417-0.873,1.045-0.166c5.617,6.314,12.594,10.132,20.959,11.386c0.831,0.125,1.67,0.18,2.503,0.289
	c0.543,0.071,0.691-0.081,0.594-0.658c-0.871-5.219,1.674-10.212,6.38-12.586c4.527-2.282,10.085-1.487,13.764,1.995
	c0.355,0.335,0.654,0.444,1.144,0.325c1.188-0.292,2.355-0.639,3.498-1.07c1.144-0.432,2.226-0.993,3.433-1.631
	c-0.435,1.418-1.099,2.568-1.929,3.626c-0.834,1.062-1.838,1.95-2.934,2.761c2.194-0.174,4.253-0.816,6.431-1.677
	c-0.667,1.111-1.396,1.944-2.137,2.763c-0.96,1.06-2.002,2.037-3.163,2.87c-0.436,0.312-0.604,0.637-0.601,1.189
	c0.054,9.988-3.515,18.503-10.643,25.464c-4.939,4.823-10.936,7.633-17.755,8.655c-8.262,1.237-16.062-0.09-23.311-4.333
	c-0.208-0.122-0.493-0.168-0.571-0.458L21.038,68.61z"/>
</svg>
