<?xml version="1.0" encoding="utf-8"?>
<!-- Generator: Adobe Illustrator 16.0.0, SVG Export Plug-In . SVG Version: 6.00 Build 0)  -->
<!DOCTYPE svg PUBLIC "-//W3C//DTD SVG 1.1//EN" "http://www.w3.org/Graphics/SVG/1.1/DTD/svg11.dtd">
<svg version="1.1" id="Layer_1" xmlns="http://www.w3.org/2000/svg" xmlns:xlink="http://www.w3.org/1999/xlink" x="0px" y="0px"
	 width="100px" height="100px" viewBox="0 0 100 100" enable-background="new 0 0 100 100" xml:space="preserve">
<path fill-rule="evenodd" clip-rule="evenodd" d="M50.135,2.904c-26.193,0-47.426,21.233-47.426,47.426
	c0,26.193,21.233,47.426,47.426,47.426c26.192,0,47.426-21.233,47.426-47.426C97.561,24.137,76.327,2.904,50.135,2.904z
	 M50.135,93.188c-23.632,0-42.789-19.156-42.789-42.789c0-23.631,19.157-42.789,42.789-42.789c23.632,0,42.789,19.158,42.789,42.789
	C92.924,74.031,73.767,93.188,50.135,93.188z"/>
<g>
	<path d="M64.588,29.724c-1.618-0.636-3.169-0.954-4.653-0.954c-4.03,0-6.045,2.188-6.045,6.562v4.335h9.307v9.266H53.89v31.459
		H41.361V48.933h-6.84v-9.266h6.84v-5.051c0-4.639,1.512-8.377,4.534-11.215c3.022-2.837,7.131-4.255,12.328-4.255
		c2.546,0,4.667,0.265,6.364,0.795V29.724z"/>
</g>
</svg>
